<svg xmlns="http://www.w3.org/2000/svg" viewBox="0 0 452.28 86.77"><defs><style>.cls-1{fill:#fff;}</style></defs><title>logo-white</title><g id="Layer_2" data-name="Layer 2"><g id="Layer_1-2" data-name="Layer 1"><path class="cls-1" d="M2,25.43A22.92,22.92,0,0,1,4.78,13.7a22.46,22.46,0,0,1,7.77-7.88A35.81,35.81,0,0,1,24.11,1.38,68.9,68.9,0,0,1,38.21,0q3.11,0,7.19.29A59.39,59.39,0,0,1,53.74,1.5a48.55,48.55,0,0,1,8.4,2.65,29.59,29.59,0,0,1,7.6,4.6,24.08,24.08,0,0,1,5.75,7.14,26.81,26.81,0,0,1,2.88,10.24H59.73a13.19,13.19,0,0,0-1.44-4.78,12.54,12.54,0,0,0-3.74-4.26,20.28,20.28,0,0,0-6.33-3A32.1,32.1,0,0,0,39,12.89q-8.63,0-13.87,2.7a9,9,0,0,0-5.24,8.57,6.73,6.73,0,0,0,2.65,5.7,19.85,19.85,0,0,0,7,3.16,68.7,68.7,0,0,0,9.78,1.78q5.46.63,11.22,1.44t11.22,2.13a33.81,33.81,0,0,1,9.78,4,21.06,21.06,0,0,1,7,6.9,20.19,20.19,0,0,1,2.65,10.82q0,7.94-3.68,13.12A26.15,26.15,0,0,1,68,81.37a44.24,44.24,0,0,1-12.77,4.2,79,79,0,0,1-13.52,1.21A75.32,75.32,0,0,1,22.73,84.7,36.48,36.48,0,0,1,9.84,78.83a23.08,23.08,0,0,1-7.37-9.15A30.25,30.25,0,0,1,0,57.89H18.64Q19,66.17,25.2,70t17,3.86a44.7,44.7,0,0,0,7.6-.63,22.64,22.64,0,0,0,6.5-2.07,12.35,12.35,0,0,0,4.49-3.74,9.35,9.35,0,0,0,1.67-5.64,7.59,7.59,0,0,0-2.59-6,18.3,18.3,0,0,0-6.85-3.51,65.73,65.73,0,0,0-9.72-2q-5.47-.75-11.11-1.61T21.12,46.38a36.29,36.29,0,0,1-9.72-3.91,20.18,20.18,0,0,1-6.85-6.62A19.14,19.14,0,0,1,2,25.43Z"/><path class="cls-1" d="M94.76,2.3h19.79L163.46,64h.23V2.3h16.57V84.47H160.82L111.56,22.79h-.23V84.47H94.76Z"/><path class="cls-1" d="M288.41,2.3h50.64a33.25,33.25,0,0,1,12.72,2.13,21.79,21.79,0,0,1,8.23,5.7,21.23,21.23,0,0,1,4.43,8.17,34.46,34.46,0,0,1,1.32,9.55,28.46,28.46,0,0,1-1.55,9.26,23.15,23.15,0,0,1-4.78,8.11A23.63,23.63,0,0,1,351.19,51a29.6,29.6,0,0,1-11.91,2.19h-33.6v31.3H288.41Zm17.26,38h27.74a32.7,32.7,0,0,0,6.5-.58,12,12,0,0,0,4.72-2,8.52,8.52,0,0,0,2.88-3.8,16.4,16.4,0,0,0,1-6.1,14.28,14.28,0,0,0-1.21-6.27,9.93,9.93,0,0,0-3.16-3.86,12.55,12.55,0,0,0-4.43-2,22.1,22.1,0,0,0-5-.58h-29Z"/><path class="cls-1" d="M373.1,25.43a22.92,22.92,0,0,1,2.82-11.74,22.46,22.46,0,0,1,7.77-7.88,35.81,35.81,0,0,1,11.57-4.43A68.9,68.9,0,0,1,409.36,0q3.11,0,7.19.29a59.39,59.39,0,0,1,8.34,1.21,48.55,48.55,0,0,1,8.4,2.65,29.59,29.59,0,0,1,7.6,4.6,24.08,24.08,0,0,1,5.75,7.14,26.81,26.81,0,0,1,2.88,10.24H430.88a13.19,13.19,0,0,0-1.44-4.78,12.54,12.54,0,0,0-3.74-4.26,20.28,20.28,0,0,0-6.33-3,32.1,32.1,0,0,0-9.21-1.15q-8.63,0-13.87,2.7a9,9,0,0,0-5.24,8.57,6.73,6.73,0,0,0,2.65,5.7,19.85,19.85,0,0,0,7,3.16,68.7,68.7,0,0,0,9.78,1.78q5.46.63,11.22,1.44t11.22,2.13a33.81,33.81,0,0,1,9.78,4,21.06,21.06,0,0,1,7,6.9,20.19,20.19,0,0,1,2.65,10.82q0,7.94-3.68,13.12a26.15,26.15,0,0,1-9.49,8.17,44.24,44.24,0,0,1-12.77,4.2,79,79,0,0,1-13.52,1.21,75.32,75.32,0,0,1-18.93-2.07A36.48,36.48,0,0,1,381,78.83a23.08,23.08,0,0,1-7.37-9.15,30.25,30.25,0,0,1-2.47-11.8h18.64q.34,8.29,6.56,12.14t17,3.86a44.7,44.7,0,0,0,7.6-.63,22.64,22.64,0,0,0,6.5-2.07A12.35,12.35,0,0,0,432,67.44a9.35,9.35,0,0,0,1.67-5.64,7.59,7.59,0,0,0-2.59-6,18.3,18.3,0,0,0-6.85-3.51,65.73,65.73,0,0,0-9.72-2q-5.47-.75-11.11-1.61t-11.11-2.24a36.29,36.29,0,0,1-9.72-3.91,20.18,20.18,0,0,1-6.85-6.62A19.14,19.14,0,0,1,373.1,25.43Z"/><polygon class="cls-1" points="244.58 2.3 224.1 2.3 187.5 84.47 206.14 84.47 234.11 19.15 261.96 84.47 281.18 84.47 244.58 2.3"/></g></g></svg>